<svg id="fi_4694528" enable-background="new 0 0 58 58" height="512" viewBox="0 0 58 58" width="512" xmlns="http://www.w3.org/2000/svg"><g><path d="m10 22.101c-1.956.399-3.5 1.943-3.899 3.899h2.083c.302-.847.969-1.514 1.816-1.816z"></path><circle cx="11" cy="27" r="1"></circle><path d="m13.816 26h2.083c-.399-1.956-1.943-3.5-3.899-3.899v2.083c.847.302 1.514.969 1.816 1.816z"></path><path d="m14 34v24h16.001l-.001-24zm13.004 13.996-.004.004c-.64.64-1.509 1-2.414 1h-.172c-.494 0-.973-.116-1.414-.317v3.317h2v2h-6v-2h2v-3.317c-.441.201-.92.317-1.414.317h-.172c-.905 0-1.774-.36-2.414-1l-.004-.004c-.638-.638-.996-1.502-.996-2.404 0-1.009.448-1.965 1.223-2.611l4.777-3.981 4.777 3.981c.775.646 1.223 1.602 1.223 2.611 0 .902-.358 1.766-.996 2.404z"></path><path d="m10.819 33.991c-.3.851-.968 1.522-1.819 1.825v2.075c1.193-.243 2.259-.914 3-1.906v-1.985c0-.028.007-.054.008-.081-.33.048-.665.081-1.008.081-.061 0-.121-.008-.181-.009z"></path><path d="m5.523 31.346c-.446-.561-.804-1.192-1.063-1.873-.686.69-1.15 1.57-1.347 2.527h2.081c.083-.232.192-.449.329-.654z"></path><path d="m1 33c0-2.3 1.145-4.437 3.013-5.738-.003-.088-.013-.174-.013-.262 0-3.86 3.14-7 7-7s7 3.14 7 7c0 1.958-.81 3.728-2.11 5h8.295c-.113-.314-.185-.648-.185-1v-1.184c-.314.112-.648.184-1 .184-1.654 0-3-1.346-3-3v-9h-19c-.551 0-1 .449-1 1v14c0 7.881 4.77 14.813 12 17.664v-11.92c-1.157.806-2.545 1.256-4 1.256-3.86 0-7-3.14-7-7z"></path><path d="m24 0h10v8h-10z"></path><path d="m10 29.816c-.847-.302-1.514-.969-1.816-1.816h-2.083c.399 1.956 1.943 3.5 3.899 3.899z"></path><path d="m7 37.899v-2.083c-.847-.302-1.514-.969-1.816-1.816h-2.083c.399 1.956 1.943 3.5 3.899 3.899z"></path><path d="m7 33c0 .551.449 1 1 1 .311 0 .577-.151.761-.374-.62-.21-1.203-.502-1.731-.868-.02.079-.03.16-.03.242z"></path><path d="m15.899 28h-2.083c-.302.847-.969 1.514-1.816 1.816v2.083c1.956-.399 3.5-1.943 3.899-3.899z"></path><path d="m46.181 33.991c-.06.001-.12.009-.181.009-.669 0-1.314-.1-1.927-.276.306 2.083 1.882 3.758 3.927 4.175v-2.083c-.85-.303-1.518-.974-1.819-1.825z"></path><path d="m47 31.899c1.956-.399 3.5-1.943 3.899-3.899h-2.083c-.302.847-.969 1.514-1.816 1.816z"></path><path d="m32 20h2v5.816c1.161-.414 2-1.514 2-2.816v-7.395c0-1.986-.541-3.911-1.558-5.605h-11c-.929 1.062-1.442 2.404-1.442 3.829v13.171c0 .551.449 1 1 1s1-.449 1-1v-1-6h2v6 1 4c0 .551.449 1 1 1s1-.449 1-1v-1-10h2v10 1c0 .551.449 1 1 1s1-.449 1-1z"></path><circle cx="46" cy="27" r="1"></circle><path d="m41.101 26h2.083c.302-.847.969-1.514 1.816-1.816v-2.083c-1.956.399-3.5 1.943-3.899 3.899z"></path><path d="m45 31.899v-2.083c-.847-.302-1.514-.969-1.816-1.816h-2.083c.399 1.956 1.943 3.5 3.899 3.899z"></path><path d="m48.816 26h2.083c-.399-1.956-1.943-3.5-3.899-3.899v2.083c.847.302 1.514.969 1.816 1.816z"></path><path d="m34 31c0 1.309-.847 2.412-2.018 2.821.005.06.018.118.018.179v5.25l3 3.75-3 3.75v7.25h6v-24h-4z"></path><path d="m57 18h-19v5c0 2.414-1.721 4.434-4 4.899v.101h4c.421 0 .812.132 1.134.356-.086-.439-.134-.892-.134-1.356 0-3.86 3.14-7 7-7s7 3.14 7 7c0 .088-.01.174-.013.262 1.868 1.301 3.013 3.438 3.013 5.738 0 3.86-3.14 7-7 7s-7-3.14-7-7c0-.085.013-.167.016-.252-.817-.568-1.503-1.306-2.016-2.161v21.362c10.011-.525 18-8.81 18-18.949v-14c0-.551-.449-1-1-1z"></path><path d="m52.54 29.473c-.258.681-.617 1.312-1.063 1.873.137.205.246.422.329.654h2.081c-.196-.957-.661-1.837-1.347-2.527z"></path><path d="m49.97 32.759c-.529.366-1.111.657-1.731.868.184.222.45.373.761.373.551 0 1-.449 1-1 0-.082-.01-.163-.03-.241z"></path><path d="m50 35.816v2.083c1.956-.399 3.5-1.943 3.899-3.899h-2.083c-.302.847-.969 1.514-1.816 1.816z"></path></g></svg>