<svg id="fi_9808771" enable-background="new 0 0 512 512" height="512" viewBox="0 0 512 512" width="512" xmlns="http://www.w3.org/2000/svg"><g id="Layer_2_00000153667402984497799470000013580676409887676550_"><g id="_21"><path d="m325.4 258.6c-.3.8-.7 1.6-1.3 2.3l-2.9 4.7c-3.9 5.6-9.5 9.9-16 12.1-6.8 2.5-15.5 4.1-25.9 4.8-7.1.7-15.3 1.4-24.4 2.2-9.2.8-22.1 1.8-38.7 3-9.5.7-17.4 1.3-23.7 1.8-3.3.4-8.1.7-14.3 1-6.6.5-11.3 1-14.2 1.4-2.6.3-5.1 1.2-7.4 2.5-4.2 2.6-6.2 8.5-6.2 17.7h182v46h-238.6l.3-47.8c0-7.8.1-13.6.3-17.3.1-3.1.4-6.3 1-9.4.5-2.4 1.2-4.8 2.2-7.1 1.3-3 2.9-6 4.5-8.8 3.1-4.3 6.9-8.1 11.2-11.1 7.1-4.5 16.2-7.1 27.3-7.8 5.7-.5 14.5-1.2 26.3-2s21.4-1.5 28.9-2c7.4-.5 15.1-1 23-1.4s13-.7 15.5-.9c14.9-.7 25.3-2.2 31.2-4.6s8.8-7.6 8.8-15.7c.1-3.8-.3-7.6-1.2-11.3-.6-2.5-2.1-4.6-4.3-6-2.7-1.5-5.7-2.4-8.8-2.7-5.4-.6-10.7-.9-16.1-1h-142.3v-46.2h161.2c15.3 0 27.5 1.4 36.8 4.2s16.2 6.8 20.9 12c4.7 5.3 8 11.8 9.3 18.7 1.5 7.3 2.2 16.6 2.2 27.8 0 17.7-1.8 30.6-5.5 38.7-.2.2-.6 1-1.1 2.2z"></path><path d="m418.2 153.8v204.4h-63.7v-204.4z"></path></g></g></svg>