<svg id="fi_8764835" height="512" viewBox="0 0 64 64" width="512" xmlns="http://www.w3.org/2000/svg"><circle cx="32" cy="29" r="2.25"></circle><path d="m39.8 14.746-4.086 9.866a5.912 5.912 0 0 1 .676.676l9.863-4.088a16.368 16.368 0 0 0 -6.453-6.454z"></path><path d="m48.25 29a16.2 16.2 0 0 0 -.653-4.566l-9.867 4.087c.013.158.02.318.02.479s-.007.321-.02.479l9.87 4.087a16.2 16.2 0 0 0 .65-4.566z"></path><path d="m17.747 21.2 9.865 4.086a5.912 5.912 0 0 1 .676-.676l-4.088-9.864a16.368 16.368 0 0 0 -6.453 6.454z"></path><path d="m36.566 44.6-4.087-9.87c-.158.013-.318.02-.479.02s-.321-.007-.479-.02l-4.087 9.87a16.29 16.29 0 0 0 9.132 0z"></path><path d="m46.253 36.8-9.865-4.086a5.912 5.912 0 0 1 -.676.676l4.088 9.864a16.368 16.368 0 0 0 6.453-6.454z"></path><path d="m24.2 43.254 4.086-9.866a5.912 5.912 0 0 1 -.676-.676l-9.863 4.088a16.368 16.368 0 0 0 6.453 6.454z"></path><path d="m15.75 29a16.2 16.2 0 0 0 .653 4.566l9.867-4.087c-.013-.158-.02-.318-.02-.479s.007-.321.02-.479l-9.87-4.087a16.2 16.2 0 0 0 -.65 4.566z"></path><path d="m30.407 10.224a1.75 1.75 0 0 0 3.186 0l3.407-7.5a1.75 1.75 0 0 0 -1.591-2.474h-6.818a1.75 1.75 0 0 0 -1.591 2.474z"></path><path d="m35.748 13.186a5.273 5.273 0 0 1 -7.5 0q-.412.1-.818.217l4.087 9.867c.158-.013.318-.02.479-.02s.321.007.479.02l4.091-9.87q-.405-.115-.818-.214z"></path><path d="m39.715 5.213-2.192 4.823a19.75 19.75 0 1 1 -11.046 0l-2.192-4.823a25 25 0 1 0 15.43 0z"></path><path d="m47 60.25h-2.775l-1.725-4.75a28.507 28.507 0 0 1 -20.994 0l-1.731 4.75h-2.775a1.75 1.75 0 0 0 0 3.5h30a1.75 1.75 0 0 0 0-3.5z"></path></svg>