<svg id="fi_18333417" enable-background="new 0 0 102 102" viewBox="0 0 102 102" xmlns="http://www.w3.org/2000/svg"><g><path d="m23.378931 67.6038208 8.7192364-4.4572754 7.9819336-4.0802612c-2.0917969-1.2568359-3.3212891-2.8325195-3.53125-4.53125l-24.2187481.0004883c.2802735 4.9052734 4.178711 9.5228881 11.0488281 13.0682983z"></path><path d="m22.6015873 41.6575928c-5.8022461 3.3850708-9.3444824 7.4885864-10.2648926 11.8764648h24.2033673c.1923828-1.6948242 1.4033203-3.2700195 3.4794922-4.5292969l-16.0070782-8.1252441c-.4743653.255249-.9470215.5119629-1.4108887.7780762z"></path><path d="m50.6003647 66.6462402-.0319824-4.9803467c-3.5322266-.0610352-6.8493652-.7723999-9.4199219-2.0223999l-5.0356445 2.5740967-11.6186504 5.9395142c7.1210938 3.3998413 16.3425274 5.2905273 26.1501446 5.3530273z"></path><path d="m44.8691635 56.3660889c3.4863281 2.0146484 9.1357422 2.0146484 12.5947266.0019531 1.5732422-.9150391 2.4414062-2.1015625 2.4453125-3.3413086v-.8598633c-.4851074.5969238-1.1320801 1.1479492-1.9453125 1.6196289-1.8662109 1.0878906-4.3232422 1.6323242-6.7851562 1.6323242-2.4609375 0-4.9248047-.5439453-6.8056641-1.6323242-.8347168-.4778442-1.4941406-1.0360107-1.9882812-1.6401978v.8286743c-.0039063 1.2592774.8789062 2.4628907 2.4843749 3.3911134z"></path><path d="m70.6787338 30.5369873-11.4697266-6.5063477c-.1835938-.1044922-.3720703-.1513672-.5605469-.1513672-.7060547 0-1.4072266.6586914-1.8349609 1.4130859-.3095703.5454102-.4746094 1.1425781-.453125 1.6386719.0224609.4975586.2236328.8579102.5996094 1.0708008l4.1791992 2.3706055c.0900879.0227661.1699219.0635376.2287598.1298218l7.0627441 4.0064087c.5283203.300293 1.1445312.3764648 1.7314453.2143555.5869141-.1625977 1.0751953-.5439453 1.375-1.0742188h.0009766c.6201172-1.0952148.2353516-2.4912109-.859375-3.1118164z"></path><path d="m79.2422104 37.3670654c-2.1279297-1.2294922-4.4404297-2.2907104-6.8730469-3.1698608-.4345703.7314453-1.1176758 1.2619019-1.9404297 1.4891968-.2910156.0805664-.5859375.1201172-.8789062.1201172-.5595703 0-1.1123047-.1445312-1.6123047-.4277344l-7.1604004-4.0614014-.697998-.0987549c-.2050781-.0296021-.4082031-.0513306-.6132812-.0739746-1.140625.9727783-2.425293 1.725769-3.8049316 2.2410889l-.0048828.7178345c8.4001465.5523682 16.1374512 2.5437622 22.3967285 5.786438.5742188.2919922 1.1416016.605957 1.6884766.9204102 5.1279297 2.9609375 8.6015625 6.484375 10.1982422 10.3061523-.2460939-5.038086-4.0234377-9.9028321-10.6972658-13.7495118z"></path><path d="m89.7168198 54.5350342h-24.2197266c-.1904297 1.6972656-1.3994141 3.2714844-3.4736328 4.5273438l16.8330078 8.5415039c6.8144531-3.5410157 10.6464844-8.1586915 10.8603516-13.0688477z"></path><path d="m51.6445541 73.5101318c9.7998047-.0620117 19.0009766-1.9501953 26.0898438-5.3466797l-16.7773438-8.5205078c-2.5517578 1.2494507-5.8581543 1.9609375-9.3884277 2.0229492l.0383301 5.9945679z"></path><path d="m41.6709213 48.1623535c.423584-1.0749512 1.3200684-2.0523071 2.6484375-2.8299561.6308594-.3674927 1.3608398-.6697998 2.1479492-.9233398l.0620117-9.335144c-7.9777832.4859619-15.3330059 2.2981567-21.3945293 5.2536011l15.9504375 8.0965576c.1904298-.0918579.3879395-.1763916.5856934-.2617188z"></path><path d="m60.7314682 58.6375732c2.4550781-1.2548828 3.8015137-2.8873901 3.791748-4.597229 0-.0013428-.0007324-.0025024-.0007324-.0038452-.0085449-1.6468506-1.2973633-3.2260742-3.6176758-4.4730835.0002441.0078735.0043945.0144653.0043945.0223999v3.4423828c-.0048828 1.6108398-1.0498047 3.1035156-2.9433594 4.2041016-1.8671875 1.0864258-4.3261719 1.6298828-6.7880859 1.6298828-2.4628906 0-4.9277344-.543457-6.8085938-1.6298828-1.9287109-1.1152344-2.9892578-2.6274414-2.984375-4.2587891v-3.4404297c0-.0222778.0097656-.0413208.0126953-.0628052.0004883-.0272217-.0002441-.0542603.0009766-.081543-.027832.0139771-.0583496.0250854-.0859375.0393677-.0002441.0001221-.0004883 0-.0004883.0001221-.0002441.000061-.0002441.0003052-.0004883.0003662-2.4526367 1.2575684-3.7995605 2.8867798-3.7976074 4.5900879.0002441.0045776.0026855.0083618.0026855.0129395.0107422 1.7133789 1.3798828 3.3491211 3.8554688 4.605957 2.5810547 1.3110352 6.0234375 2.0327148 9.6933594 2.0327148 3.6708985.0000001 7.1035157-.7216796 9.6660157-2.0327148z"></path><path d="m84.2324448 32.4671631c-5.6464844-3.2625122-12.6538086-5.6348877-20.3063965-6.9111938l7.2468262 4.1109009c1.2929688.7335205 1.8818359 2.2182617 1.5605469 3.598999 2.4785156.8974609 4.8378906 1.9802856 7.0087891 3.2349854 7.21875 4.1611328 11.2001953 9.5317383 11.2099609 15.1220703 0 .784668-.0751953 1.5307617-.2304688 2.2822266-.0004883.0028687-.0024414.0050659-.0029297.0078735.0004883.0339355.0029297.0679321.003418.1018677 0 .0060425.003418.0111084.003418.0172119.0351562 5.5458984-4.0986328 10.7236328-11.6396484 14.5786133-.0014648.0007935-.003418.0003662-.0048828.0011597-.0009766.0006714-.0019531.0021362-.0029297.0027466-7.4550781 3.8027344-17.3740234 5.8969727-27.9306641 5.8969727-10.5625 0-20.5039043-2.0957031-27.9951153-5.9003906-7.5947266-3.8568726-11.7980957-9.0296021-11.8374023-14.5657349-.0002441-.0040283-.0024414-.0073853-.0024414-.0114136 0-.0980835.0041504-.1993408.0063477-.3004761-.001709-.0066528-.0061035-.0115967-.0073242-.0183716-.1455078-.78125-.21875-1.5317383-.21875-2.2314453-.0097656-5.5351562 3.8994141-10.8632812 11.0078125-15.0019531 2.4016113-1.390686 5.0454102-2.5773926 7.854248-3.5440674-.161377-1.2817993.442627-2.5953979 1.6340332-3.270874l7.444334-4.2232056c-.0097656-.0289917-.0187988-.0581665-.0283203-.0872192-8.0915508 1.2086182-15.4924297 3.6555786-21.4208965 7.0994873-8.7451173 5.092285-13.5546876 11.8300779-13.5429689 18.9726561.0126953 7.1918945 4.8994141 13.972168 13.7617188 19.0922852 18.4453106 10.6552734 48.3496094 10.6552734 66.6582031.0009766 8.7402344-5.0820312 13.5478516-11.8125 13.5380859-18.9506836-.0097675-7.194336-4.8984394-13.979004-13.7666034-19.104004z"></path><path d="m97.9843979 57.355896c-1.878418 5.2920532-6.3359375 10.1433105-13.0205078 14.0302124-9.2929688 5.4077148-21.5283203 8.1118164-33.7802734 8.1118164s-24.5195293-2.7036133-33.8808594-8.1108398c-6.8430176-3.9537964-11.3955078-8.8972778-13.2788086-14.2890625l-.0229492 8.1904297c-.0205078 7.2197266 4.8681641 14.0268555 13.765625 19.1679688 18.4374981 10.6533203 48.3378906 10.6518555 66.65625.0004883 8.7099609-5.0664062 13.5185547-11.7744141 13.5380859-18.8876953z"></path><path d="m31.2168217 11.1209717c-.6142578 1.0898438-.2275391 2.4848633.8642559 3.1088867l6.7353516 3.8197021c.4057617-1.5050049 1.0742188-2.8994141 1.9599609-4.1326294l-6.4511719-3.6577759c-1.0917969-.6220702-2.4863262-.2343749-3.1083965.8618165z"></path><path d="m46.4424057 48.1536865.0178223-2.6845093c-.5935059.2102661-1.1533203.4451294-1.6359863.7269897-1.2070312.706543-2.0048828 1.5717773-2.3056641 2.5014648-.4941406 1.5175781.3847656 3.0957031 2.3525391 4.222168 3.4873047 2.0180664 9.1337891 2.0180664 12.5898438.0019531 1.9150391-1.1108398 2.7675781-2.6015625 2.3408203-4.090332-.2851562-.9946289-1.1074219-1.9052734-2.3779297-2.6337891-.5463867-.3192139-1.175293-.5734253-1.8427734-.7926636l-.0185547 2.7721558c0 .7958984-.5058594 1.5351562-1.4257812 2.0776367-.8740234.5087891-1.9970703.7631836-3.1210938.7636719-1.1230469 0-2.2460938-.2539062-3.1230469-.7617188-.9218751-.5302733-1.4501954-1.2968748-1.4501954-2.1030272z"></path><path d="m55.5879135 44.3554077c.8544922.2565308 1.6484375.574646 2.3369141.9769897 1.4047852.805481 2.3491211 1.8388062 2.7573242 2.9956665.0688477.0320435.1391602.062561.2070312.0958862l15.8056641-8.0755005c-5.9638672-2.9124756-13.1970215-4.7199707-21.0454102-5.2426147z"></path><path d="m30.3515873 34.1419678c-.045166-.0796509-.0703125-.1642456-.1081543-.2459106-2.7333984.9437256-5.3056641 2.0985107-7.6398926 3.4505005-6.5458984 3.8105469-10.2509766 8.6152344-10.4970703 13.5854492 1.5830078-3.753418 4.9873047-7.2192383 9.9941406-10.1401367.546875-.3139648 1.1015625-.6166992 1.6669922-.9189453 6.3686523-3.2940674 14.23242-5.2902832 22.7683086-5.8024902l.0048828-.7398682c-1.348877-.5259399-2.6032715-1.2905884-3.7231445-2.2573242l-.0617676.0076904c-.0839844.0083008-.1630859.0151367-.234375.0307617-.1027832.0135498-.170166.0220337-.2314453.0315552l-7.4667969 4.2355347c-.5.2832031-1.0527344.4282227-1.6123047.4282227-.2939453 0-.5888672-.0400391-.8789062-.1206055-.8447246-.2333986-1.5478496-.7822267-1.9804668-1.5444337z"></path><path d="m48.3916245 49.3909912c1.4257812.8242188 3.8251953.8242188 5.2392578.0009766.5996094-.3540039.9316406-.7871094.9316406-1.2182617l.0961914-14.4559326c-1.121582.3152466-2.2902832.4862061-3.4858398.4862061-1.2441406 0-2.4658203-.1816406-3.6342773-.5286255l-.0961914 14.4817505c-.0000001.4355468.345703.8862304.9492187 1.2338866z"></path><path d="m65.4902573 53.5340576h24.1679687c-.9819336-4.3873291-4.5688477-8.480957-10.4160156-11.8569336-.4614258-.2645264-.9423828-.5255737-1.4272461-.7779541l-15.8588867 8.1027222c2.0947265 1.2633057 3.3251953 2.8393555 3.5341797 4.5321655z"></path><path d="m32.5986557 34.7230225c.5859375.1616211 1.2021484.0854492 1.7304688-.2143555l7.5805664-4.3001099c.0036621-.0015869.0065918-.0043335.0102539-.0058594l.583252-.3308716c.0041504-.0019531.0078125-.0050049.0119629-.0067749l3.284668-1.8632202c.3955078-.2236328.5976562-.609375.6015625-1.1450195.0078125-1.0092773-.6933594-2.2451172-1.5625-2.7558594-.2519531-.1479492-.4960938-.222168-.7304688-.222168-.1923828 0-.3789062.0507812-.5566406.1518555l-11.4697266 6.5063477c-1.0947247.6206055-1.4804668 2.0166016-.8603497 3.1118164h.0009766c.2998046.5302734.788084.9116211 1.3759746 1.0742188z"></path><path d="m51.1728745 9.5540771c-6.5126953 0-11.8105469 5.3066406-11.8105469 11.8295898 0 1.2260132.1945801 2.4175415.557373 3.5570068l3.1379395-1.7801514c.7089844-.3999023 1.5205078-.3725586 2.2871094.078125 1.1630859.6831055 2.0664062 2.2753906 2.0566406 3.6254883-.0068359.8930664-.4003906 1.6064453-1.1074219 2.0078125l-2.7138672 1.5394289c2.1342773 1.7988281 4.800293 2.7926025 7.5927734 2.7926025 2.8876953 0 5.6157227-1.0424805 7.7668457-2.928894l-2.473877-1.4031372c-1.4726562-.8359375-1.3027344-2.6972656-.5224609-4.0732422.7783203-1.3740234 2.2851562-2.472168 3.7597656-1.6381836l2.7839355 1.5792236c.3225098-1.0901489.4953613-2.2149048.4953613-3.3560791.0000002-6.5229492-5.2978514-11.8295899-11.8095701-11.8295899z"></path><path d="m68.4297104 10.2591553-6.7380371 3.8222046c.8659668 1.2475586 1.5075684 2.6572876 1.888916 4.1716309l7.0952148-4.0241089c.5341797-.3027344.9169922-.7944336 1.0791016-1.3842773.1601562-.5859375.0839844-1.1972656-.2167969-1.7226562-.3017578-.5336914-.7910156-.9160156-1.3769531-1.0786133-.5849609-.1635744-1.2021484-.0859376-1.7314453.2158202z"></path></g></svg>